<?xml version="1.0" encoding="UTF-8" standalone="no"?>
<svg
   xmlns:dc="http://purl.org/dc/elements/1.1/"
   xmlns:cc="http://creativecommons.org/ns#"
   xmlns:rdf="http://www.w3.org/1999/02/22-rdf-syntax-ns#"
   xmlns:svg="http://www.w3.org/2000/svg"
   xmlns="http://www.w3.org/2000/svg"
   id="svg8"
   version="1.1"
   viewBox="0 0 210 297"
   height="297mm"
   width="210mm">
  <defs
     id="defs2" />
  <metadata
     id="metadata5">
    <rdf:RDF>
      <cc:Work
         rdf:about="">
        <dc:format>image/svg+xml</dc:format>
        <dc:type
           rdf:resource="http://purl.org/dc/dcmitype/StillImage" />
        <dc:title></dc:title>
      </cc:Work>
    </rdf:RDF>
  </metadata>
  <g
     id="layer1">
    <g
       transform="translate(-2.2678564,-2.7970237)"
       id="g3730">
      <path
         id="path3734"
         d="m 77.95423,195.18965 c 13.774781,-0.12953 36.05985,-0.12943 49.52238,2.2e-4 13.46252,0.12966 2.19225,0.23563 -25.04506,0.23551 -27.237308,-1.2e-4 -38.252101,-0.1062 -24.47732,-0.23573 z M 54.235665,156.64114 c 0,-33.42793 0.152023,-37.55893 1.398819,-38.01091 1.82725,-0.66239 91.766886,-0.66239 93.594126,0 1.05819,0.3836 1.39882,1.71484 1.39882,5.46673 v 4.95965 l -6.3491,-0.24545 -6.3491,-0.24545 -1.82542,-4.80358 c -1.00398,-2.64196 -2.03493,-4.80357 -2.291,-4.80357 -0.25606,0 -1.25342,2.16161 -2.21633,4.80357 l -1.75076,4.80358 -7.07462,0.4177 -7.07463,0.4177 5.51731,3.34162 c 5.15427,3.12173 7.48255,5.54815 3.98922,4.15735 -0.85117,-0.33888 -3.54906,-0.79471 -5.99532,-1.01296 -8.45268,-0.75413 -13.97576,3.2392 -13.97576,10.10484 0,4.90668 2.17166,7.5255 8.88203,10.71092 6.91533,3.28271 8.84926,5.50819 7.26112,8.35576 -0.59376,1.06462 -1.51743,2.21187 -2.05259,2.54944 -1.64468,1.03743 -7.49289,0.70621 -10.83704,-0.61376 -4.0788,-1.60995 -3.84307,-1.70622 -3.84307,1.56946 0,2.31045 0.44123,2.98105 2.4319,3.69612 11.09022,3.98369 21.26747,-0.0651 22.06219,-8.77699 0.50737,-5.56184 -1.68573,-8.61506 -8.28203,-11.53019 -6.43213,-2.84257 -8.25311,-4.33162 -8.25311,-6.74873 0,-4.23547 4.97759,-5.72411 11.08251,-3.31444 1.68671,0.66577 3.12241,0.94772 3.19045,0.62656 0.068,-0.32116 0.21078,-2.04222 0.3172,-3.82458 0.18261,-3.05819 -0.0573,-3.38746 -4.26031,-5.84783 l -4.4538,-2.60718 6.04864,-0.4177 6.04864,-0.41771 1.36586,-3.55047 c 0.75122,-1.95275 1.64841,-3.55046 1.99374,-3.55046 0.34534,0 1.18967,1.59771 1.8763,3.55046 l 1.24842,3.55047 6.12099,0.41771 6.12098,0.4177 -4.69475,2.73758 c -5.07403,2.95875 -5.04974,2.86109 -2.29415,9.22327 l 1.20035,2.7714 -3.29602,-1.88753 c -1.81281,-1.03815 -3.99243,-2.28172 -4.8436,-2.76351 -1.11064,-0.62865 -2.04353,-0.58337 -3.30423,0.16039 -2.31181,1.36388 -2.64521,1.31265 -2.76961,-0.4256 -0.0576,-0.80408 -0.36157,-0.33416 -0.67561,1.04426 -0.44609,1.95801 -1.04994,2.50973 -2.76061,2.52231 -1.33149,0.01 -2.30088,0.56184 -2.47351,1.40863 -0.25068,1.22966 0.0586,1.27663 2.64415,0.40161 1.61043,-0.54501 3.24355,-1.45624 3.62916,-2.02495 0.38562,-0.5687 1.51691,-1.44645 2.51398,-1.95054 1.50586,-0.76133 2.6826,-0.4094 6.94896,2.07826 2.82486,1.64715 5.34757,2.99481 5.60602,2.99481 0.25846,0 -0.39844,-2.27324 -1.45978,-5.05164 l -1.9297,-5.05164 2.15241,-1.54225 c 1.18382,-0.84824 3.27305,-2.16761 4.64272,-2.93194 l 2.49031,-1.38968 v 31.7926 31.7926 H 102.43155 54.235665 Z m 34.046633,27.56597 c 4.963933,-2.17108 8.47277,-6.01958 9.720374,-10.66131 0.647215,-2.40798 1.068322,-10.22419 1.071023,-19.87942 l 0.0044,-15.91122 -0.589617,15.03728 c -0.368124,9.38918 -1.012245,15.84833 -1.714855,17.19658 -1.505502,2.88893 -5.389065,4.94164 -9.349175,4.94164 -5.011907,0 -6.658961,-1.21262 -6.658961,-4.90258 0,-3.91229 0.490375,-4.42062 3.15719,-3.27276 3.308046,1.42387 4.801763,-0.36089 4.801763,-5.73734 0,-5.32844 -0.632447,-5.764 -8.170825,-5.62725 -10.834322,0.19655 -18.714387,9.54847 -15.796897,18.74746 2.962071,9.33956 14.197991,14.14853 23.525558,10.06892 z m 33.861722,-8.88427 c 5.34945,-1.50072 8.57418,-4.90857 9.46205,-9.99933 0.43027,-2.46702 0.33758,-3.01364 -0.35415,-2.08851 -0.51532,0.68921 -0.94305,1.88214 -0.95049,2.65097 -0.0203,2.09765 -4.40806,6.61303 -7.68172,7.90518 -1.58783,0.62673 -4.59102,1.16593 -6.67375,1.19823 -2.92687,0.0454 -3.38516,0.22176 -2.01815,0.77669 2.51152,1.01952 3.11895,0.98675 8.21621,-0.44323 z m -30.561576,-2.41515 c 4.427657,-0.93004 5.100972,-3.69346 5.100972,-20.93539 0,-16.82234 -0.08343,-17.09602 -4.865782,-15.96213 l -2.208843,0.52371 v 14.544 c 0,12.10793 -0.232762,14.76387 -1.389659,15.85677 -1.638206,1.54757 -2.532949,1.62386 -4.915834,0.41913 -1.639433,-0.82886 -1.747413,-0.6647 -1.489436,2.26437 0.224836,2.5528 0.701826,3.26673 2.48896,3.72529 2.197108,0.56376 2.650509,0.53662 7.279622,-0.43575 z m 23.567136,-26.17193 c -0.3135,-1.87568 0.34163,-2.84151 2.43819,-3.59452 2.88838,-1.03741 2.24107,-1.90452 -0.87093,-1.16666 -2.30647,0.54686 -3.80972,2.99218 -2.79392,4.54485 0.64635,0.98796 1.37718,1.11685 1.22666,0.21633 z"
         style="fill:#eceef0;stroke-width:0.85951829" />
      <path
         id="path3732"
         d="m 53.351337,154.46325 v -40.51712 h 49.080213 49.08021 v 40.51712 40.51712 H 102.43155 53.351337 Z m 97.276093,7.88911 v -31.7926 l -2.49031,1.38968 c -1.36967,0.76433 -3.4589,2.0837 -4.64272,2.93194 l -2.15241,1.54225 1.9297,5.05164 c 1.06134,2.7784 1.71824,5.05164 1.45978,5.05164 -0.25845,0 -2.78116,-1.34766 -5.60602,-2.99481 -4.26636,-2.48766 -5.4431,-2.83959 -6.94896,-2.07826 -0.99707,0.50409 -2.12836,1.38184 -2.51398,1.95054 -0.38561,0.56871 -2.01873,1.47994 -3.62916,2.02495 -2.58555,0.87502 -2.89483,0.82805 -2.64415,-0.40161 0.17263,-0.84679 1.14202,-1.39884 2.47351,-1.40863 1.71067,-0.0126 2.31452,-0.5643 2.76061,-2.52231 0.31404,-1.37842 0.61806,-1.84834 0.67561,-1.04426 0.1244,1.73825 0.4578,1.78948 2.76961,0.4256 1.2607,-0.74376 2.19359,-0.78904 3.30423,-0.16039 0.85117,0.48179 3.03079,1.72536 4.8436,2.76351 l 3.29602,1.88753 -1.20035,-2.7714 c -2.75559,-6.36218 -2.77988,-6.26452 2.29415,-9.22327 l 4.69475,-2.73758 -6.12098,-0.4177 -6.12099,-0.41771 -1.24842,-3.55047 c -0.68663,-1.95275 -1.53096,-3.55046 -1.8763,-3.55046 -0.34533,0 -1.24252,1.59771 -1.99374,3.55046 l -1.36586,3.55047 -6.04864,0.41771 -6.04864,0.4177 4.4538,2.60718 c 4.20304,2.46037 4.44292,2.78964 4.26031,5.84783 -0.10642,1.78236 -0.24916,3.50342 -0.3172,3.82458 -0.068,0.32116 -1.50374,0.0392 -3.19045,-0.62656 -6.10492,-2.40967 -11.08251,-0.92103 -11.08251,3.31444 0,2.41711 1.82098,3.90616 8.25311,6.74873 6.5963,2.91513 8.7894,5.96835 8.28203,11.53019 -0.79472,8.71187 -10.97197,12.76068 -22.06219,8.77699 -1.99067,-0.71507 -2.4319,-1.38567 -2.4319,-3.69612 0,-3.27568 -0.23573,-3.17941 3.84307,-1.56946 3.34415,1.31997 9.19236,1.65119 10.83704,0.61376 0.53516,-0.33757 1.45883,-1.48482 2.05259,-2.54944 1.58814,-2.84757 -0.34579,-5.07305 -7.26112,-8.35576 -6.71037,-3.18542 -8.88203,-5.80424 -8.88203,-10.71092 0,-6.86564 5.52308,-10.85897 13.97576,-10.10484 2.44626,0.21825 5.14415,0.67408 5.99532,1.01296 3.49333,1.3908 1.16505,-1.03562 -3.98922,-4.15735 l -5.51731,-3.34162 7.07463,-0.4177 7.07462,-0.4177 1.75076,-4.80358 c 0.96291,-2.64196 1.96027,-4.80357 2.21633,-4.80357 0.25607,0 1.28702,2.16161 2.291,4.80357 l 1.82542,4.80358 6.3491,0.24545 6.3491,0.24545 v -4.95965 c 0,-3.75189 -0.34063,-5.08313 -1.39882,-5.46673 -1.82724,-0.66239 -91.766876,-0.66239 -93.594126,0 -1.246796,0.45198 -1.398819,4.58298 -1.398819,38.01091 v 37.50382 h 48.195885 48.19588 z m -76.530966,21.86828 c -6.585943,-2.82608 -11.006001,-10.08614 -9.802873,-16.10148 1.476552,-7.3824 8.117175,-12.5807 16.260046,-12.72843 7.538378,-0.13675 8.170825,0.29881 8.170825,5.62725 0,5.37645 -1.493717,7.16121 -4.801763,5.73734 -2.666815,-1.14786 -3.15719,-0.63953 -3.15719,3.27276 0,3.68996 1.647054,4.90258 6.658961,4.90258 3.96011,0 7.843673,-2.05271 9.349175,-4.94164 0.70261,-1.34825 1.346731,-7.8074 1.714885,-17.19658 l 0.589617,-15.03728 -0.0044,15.91122 c -0.0027,9.65523 -0.423838,17.47144 -1.071053,19.87942 -2.578686,9.59405 -14.264559,14.81214 -23.906208,10.67484 z m 39.831346,-8.45457 c -1.36701,-0.55493 -0.90872,-0.73131 2.01815,-0.77669 2.08273,-0.0323 5.08592,-0.5715 6.67375,-1.19823 3.27366,-1.29215 7.6614,-5.80753 7.68172,-7.90518 0.007,-0.76883 0.43517,-1.96176 0.95049,-2.65097 0.69173,-0.92513 0.78442,-0.37851 0.35415,2.08851 -0.88787,5.09076 -4.1126,8.49861 -9.46205,9.99933 -5.09726,1.42998 -5.70469,1.46275 -8.21621,0.44323 z m -29.624988,-2.42263 c -1.787134,-0.45856 -2.264124,-1.17249 -2.48896,-3.72529 -0.257977,-2.92907 -0.149997,-3.09323 1.489436,-2.26437 2.382885,1.20473 3.277628,1.12844 4.915834,-0.41913 1.156897,-1.0929 1.389659,-3.74884 1.389659,-15.85677 v -14.544 l 2.208843,-0.52371 c 4.782356,-1.13389 4.865782,-0.86021 4.865782,15.96213 0,19.60758 -0.190273,20.07428 -8.843282,21.69063 -0.72957,0.13628 -2.321361,-0.008 -3.537312,-0.31949 z m 29.620098,-26.82401 c -1.0158,-1.55267 0.48745,-3.99799 2.79392,-4.54485 3.112,-0.73786 3.75931,0.12925 0.87093,1.16666 -2.09656,0.75301 -2.75169,1.71884 -2.43819,3.59452 0.15052,0.90052 -0.58031,0.77163 -1.22666,-0.21633 z"
         style="fill:#4270b6;stroke-width:0.85951829" />
    </g>
  </g>
</svg>
